<svg width="81" height="81" viewBox="0 0 81 81" fill="none" xmlns="http://www.w3.org/2000/svg">
<path d="M80.7383 34.462C79.8707 31.0309 76.9546 28.3812 72.5273 27.0009C68.3024 25.6837 63.1504 25.6726 58.0202 26.97C52.8901 28.2674 48.3625 30.7262 45.2719 33.8934C42.033 37.2125 40.727 40.93 41.5948 44.3611C41.9317 45.6938 42.5861 46.9218 43.5392 48.0109C43.9697 48.5027 44.7174 48.5525 45.2092 48.1219C45.7011 47.6913 45.7509 46.9436 45.3203 46.4519C44.6153 45.6465 44.1341 44.7479 43.8895 43.7807C43.2314 41.1782 44.3238 38.254 46.9657 35.5465C49.7558 32.6875 53.8878 30.4565 58.6003 29.2647C63.3127 28.073 68.0087 28.0716 71.8225 29.2606C75.4339 30.3866 77.7851 32.4399 78.4433 35.0423C79.1014 37.6448 78.009 40.569 75.367 43.2763C72.5769 46.1354 68.445 48.3663 63.7324 49.5581C58.572 50.8631 53.3643 50.7282 49.4442 49.188C48.8362 48.9492 48.1488 49.2483 47.9099 49.8568C47.6709 50.4652 47.9703 51.1521 48.5788 51.3912C50.983 52.3358 53.7996 52.8117 56.7853 52.8115C59.2263 52.8115 61.7808 52.4932 64.3129 51.8528C69.4429 50.5554 73.9705 48.0968 77.0612 44.9294C80.2999 41.6106 81.6059 37.8931 80.7383 34.462Z" fill="#5B5855"/>
<path d="M51.219 40.1468C51.8314 39.9183 52.1428 39.2366 51.9143 38.6242C51.6857 38.0118 51.0042 37.7006 50.3918 37.9289C49.4604 38.2763 48.7272 39.1658 48.5237 40.1949C48.294 41.357 48.2282 44.1628 52.5652 45.1164C53.4885 45.3194 54.5677 45.4179 55.7428 45.4179C58.4209 45.4179 61.5964 44.9062 64.5544 43.9519C66.8413 43.2142 72.2534 41.1131 73.1181 37.5431C73.2668 36.9296 73.2822 36.3651 73.1656 35.8172C72.9651 34.8777 72.3739 34.121 71.5435 33.741C70.7337 33.3705 69.8128 33.4086 69.0172 33.8455C68.4442 34.1602 68.2349 34.8797 68.5497 35.4527C68.8642 36.0257 69.584 36.2349 70.1567 35.9202C70.33 35.8251 70.4708 35.853 70.5587 35.8933C70.7038 35.9596 70.8074 36.108 70.8508 36.3108C70.8924 36.5065 70.8819 36.721 70.8179 36.9857C70.4254 38.6059 67.6816 40.4559 63.828 41.6991C59.9422 42.9525 55.721 43.3866 53.0736 42.8044C50.5315 42.2455 50.7519 41.1302 50.846 40.6538C50.8968 40.3958 51.0762 40.1999 51.219 40.1468Z" fill="#5B5855"/>
<path d="M36.924 51.4573C33.5847 48.3962 28.8605 46.2491 23.6217 45.4114C18.3828 44.5736 13.2244 45.1406 9.09718 47.0078C4.80434 48.9498 2.11315 52.0648 1.51941 55.7789C0.925673 59.4931 2.51118 63.2917 5.98438 66.4755C9.32373 69.5366 14.0478 71.6837 19.2867 72.5214C20.8667 72.774 22.4389 72.8989 23.9781 72.8989C27.5427 72.8989 30.9286 72.229 33.8112 70.9248C38.1039 68.9829 40.7951 65.8678 41.389 62.1537C41.9827 58.4399 40.397 54.6411 36.924 51.4573ZM39.0514 61.7802C38.5872 64.6831 36.3796 67.1648 32.8354 68.7683C29.1254 70.4466 24.4464 70.9493 19.6604 70.1843C14.874 69.419 10.5852 67.4821 7.58365 64.7308C4.71622 62.1021 3.39253 59.0558 3.8567 56.1529C4.32071 53.25 6.52828 50.7682 10.0727 49.1648C12.6506 47.9985 15.6957 47.4 18.9205 47.4C20.3364 47.4 21.7873 47.5155 23.2477 47.749C28.0341 48.5144 32.323 50.4511 35.3244 53.2024C38.1918 55.831 39.5155 58.8773 39.0514 61.7802Z" fill="#5B5855"/>
<path d="M30.2106 58.5559C29.559 58.6088 29.0739 59.18 29.1268 59.8314C29.1798 60.4831 29.7545 60.9692 30.4024 60.9151C30.5174 60.9063 30.5832 60.9512 30.6182 60.9909C30.6808 61.0624 30.6993 61.1755 30.6705 61.3102C30.6382 61.4609 30.5609 61.6114 30.4274 61.784C29.5571 62.9075 26.7333 63.3859 23.234 63.0023C19.6803 62.6128 16.1559 61.4513 14.255 60.0431C12.5227 58.7596 13.0461 58.0206 13.2696 57.7053C13.3745 57.5571 13.5412 57.4847 13.6287 57.491C14.2755 57.5327 14.8439 57.0385 14.886 56.3861C14.928 55.7338 14.4333 55.1709 13.7811 55.1289C12.8467 55.0681 11.9092 55.5313 11.3383 56.3369C10.0318 58.1812 10.5955 60.2777 12.8462 61.9452C15.5878 63.9764 20.9587 65.5005 25.4781 65.5005C28.4501 65.5005 31.0538 64.8413 32.2987 63.2334C32.653 62.7764 32.8775 62.3094 32.9852 61.806C33.1722 60.9343 32.9578 60.0681 32.3973 59.4294C31.8498 58.806 31.0537 58.488 30.2106 58.5559Z" fill="#5B5855"/>
<path d="M8.24123 33.454C10.5285 34.2198 13.1012 34.6046 15.8051 34.6046C18.0544 34.6046 20.3947 34.3383 22.7369 33.8036C26.3474 32.9795 29.7338 31.5593 32.5295 29.6968C33.0736 29.3344 33.2207 28.5997 32.8584 28.0556C32.496 27.5117 31.7613 27.3644 31.2172 27.7269C28.6581 29.4318 25.5436 30.7351 22.2102 31.4959C17.4702 32.5778 12.7763 32.4761 8.99285 31.2094C5.41271 30.0105 3.11418 27.9186 2.5206 25.3188C1.92734 22.7191 3.09029 19.837 5.79572 17.2033C8.65445 14.4204 12.8394 12.2918 17.5792 11.2098C22.3191 10.1277 27.0133 10.2296 30.7966 11.4963C34.3769 12.6952 36.6752 14.7871 37.2688 17.3869C37.9053 20.1757 36.4403 22.6901 35.0992 24.3086C34.6822 24.8118 34.7521 25.5581 35.2555 25.9749C35.7586 26.3918 36.5047 26.3222 36.922 25.8188C39.2979 22.9515 40.2407 19.7699 39.5764 16.86C38.7923 13.4247 35.9412 10.7227 31.5482 9.25174C27.3586 7.84879 22.2109 7.7246 17.0525 8.90195C11.8946 10.0793 7.31052 12.4251 4.1444 15.5072C0.825139 18.7387 -0.571162 22.4103 0.213051 25.8457C0.997106 29.2809 3.8484 31.983 8.24123 33.454Z" fill="#5B5855"/>
<path d="M11.0245 22.2374C11.6361 22.0069 11.9451 21.3242 11.7147 20.7126C11.4842 20.1007 10.8016 19.7924 10.1898 20.0222C9.31208 20.353 8.65 21.1603 8.4619 22.1293C8.03111 24.3481 9.40859 26.0262 12.1463 26.6184C12.9571 26.7938 13.897 26.8777 14.9147 26.8777C20.8359 26.8777 29.3866 24.0327 30.4021 19.7784C30.5363 19.2162 30.5486 18.6982 30.4395 18.1948C30.2506 17.3236 29.6984 16.6228 28.9244 16.2717C28.1688 15.9289 27.3115 15.9673 26.5724 16.3764C26.0005 16.693 25.7937 17.4133 26.1102 17.9852C26.4268 18.557 27.1468 18.7639 27.719 18.4473C27.8204 18.3912 27.899 18.4057 27.9468 18.4274C28.0334 18.4666 28.0973 18.5622 28.1262 18.6963C28.1591 18.8471 28.1506 19.0161 28.0998 19.2285C27.7698 20.6109 25.3939 22.2099 22.0473 23.3021C18.6484 24.4113 14.9585 24.8046 12.6467 24.3046C10.5393 23.8489 10.7119 22.9599 10.7856 22.5802C10.8202 22.4022 10.9465 22.2668 11.0245 22.2374Z" fill="#5B5855"/>
</svg>
