<svg width="84" height="81" viewBox="0 0 84 81" fill="none" xmlns="http://www.w3.org/2000/svg">
<path d="M77.2587 20.8338C76.4538 21.61 75.6168 22.2404 74.735 22.741L60.4167 8.93269C60.9358 8.08292 61.5889 7.27579 62.3944 6.49895C63.9338 5.01448 63.9338 2.59867 62.3938 1.11358C60.8544 -0.370885 58.3493 -0.371503 56.8093 1.11358C50.4006 7.29372 50.307 14.7643 51.4286 21.5093C43.2863 19.8907 34.2854 19.2022 27.1 26.1308C23.852 29.2635 21.9846 32.9425 21.3911 37.3792C21.304 38.03 21.7808 38.6258 22.4556 38.7098C23.1285 38.7939 23.7482 38.3341 23.8347 37.6833C24.3564 33.7873 25.9938 30.5582 28.8425 27.8111C35.4626 21.4271 43.826 22.346 51.9028 24.0351C52.1438 25.1988 52.3572 26.1116 52.5924 27.1146C44.5674 25.3545 36.795 24.1105 30.9336 29.8444C17.8317 42.497 40.0948 64.0823 25.4491 78.2058C24.8704 78.7639 23.9283 78.7639 23.3496 78.2058C22.7703 77.6477 22.7703 76.7393 23.3496 76.1812C32.6364 67.2249 24.3385 54.3591 23.688 42.0415C23.6527 41.3864 23.0792 40.8809 22.3947 40.9155C21.7147 40.9489 21.1918 41.5076 21.2264 42.1626C21.3616 44.7175 21.8115 47.2779 22.3069 49.5918C15.3125 48.5109 7.56632 48.6011 1.15765 54.7806C-0.385562 56.2682 -0.386203 58.6778 1.15765 60.166C2.70086 61.6548 5.19896 61.6548 6.74281 60.166C7.54773 59.3898 8.38471 58.76 9.2659 58.2594L23.5848 72.0671C23.0651 72.9175 22.412 73.7246 21.6071 74.5008C20.0671 75.9853 20.0671 78.4017 21.6071 79.8862C23.1464 81.3713 25.6516 81.3713 27.1916 79.8862C33.6003 73.7061 33.6938 66.2355 32.5723 59.4905C41.8662 61.3378 50.1712 61.3588 56.9009 54.869C64.0863 47.9398 63.3711 39.2586 61.6927 31.4067C64.0306 31.7652 66.3787 31.9821 68.7429 31.9104C69.4228 31.8894 69.9567 31.3406 69.9355 30.6849C69.9137 30.0292 69.3459 29.5119 68.6653 29.5348C66.4569 29.6015 64.0453 29.4019 61.1268 28.9056C60.8897 27.9026 60.659 26.9577 60.3994 25.8712C67.2343 27.1981 73.7397 27.588 79.0012 22.5142C79.5799 21.9561 80.5214 21.9561 81.1007 22.5142C81.6813 23.0735 81.6813 23.9795 81.1007 24.5388C78.7955 26.7624 76.1917 28.2061 73.1411 28.952C72.4817 29.1133 72.0824 29.7591 72.2497 30.3957C72.417 31.0316 73.0873 31.4166 73.7468 31.2553C77.2395 30.4012 80.215 28.7542 82.8432 26.2191C83.5892 25.4998 84 24.5437 84 23.5265C84 20.1441 79.7318 18.4489 77.2587 20.8338ZM5.00029 58.4856C4.41966 59.0455 3.48079 59.0455 2.90016 58.4856C2.32018 57.9263 2.31954 57.0209 2.90016 56.461C6.89085 52.6126 11.5692 51.4551 16.2219 51.4551C18.472 51.4551 20.7169 51.7258 22.8747 52.0941C23.1099 53.0916 23.3496 54.0724 23.6021 55.1292C16.7673 53.8017 10.2618 53.4117 5.00029 58.4856ZM11.6865 57.2323C15.0299 56.2416 19.0289 56.6205 24.1904 57.6748C25.2844 62.6523 25.6772 66.5087 24.6493 69.7328L11.6865 57.2323ZM30.7914 51.3099C29.8518 47.3972 29.0206 43.7485 29.0572 40.447L42.0552 52.9816C38.6317 53.0168 34.848 52.2159 30.7914 51.3099ZM45.216 52.6695L29.3808 37.399C29.7724 35.5969 30.5459 33.9233 31.8545 32.3956L50.4038 50.284C48.8202 51.5466 47.0854 52.2919 45.216 52.6695ZM52.147 48.6042L33.5971 30.7158C35.1807 29.4538 36.9161 28.7079 38.7849 28.3303L54.6201 43.6008C54.2285 45.4029 53.4556 47.0765 52.147 48.6042ZM53.2102 29.6899C54.1497 33.6025 54.9802 37.2513 54.9444 40.5527L41.9463 28.0182C45.3692 27.983 49.1535 28.7839 53.2102 29.6899ZM55.1584 53.1886C48.5382 59.5727 40.1756 58.6537 32.0981 56.9647C31.9244 56.1291 31.7353 55.2682 31.4085 53.8851C39.5366 55.6681 47.1488 56.8627 53.0589 51.1634C66.0737 38.6134 43.99 16.8365 58.5524 2.79396C59.1311 2.2359 60.0726 2.23528 60.6519 2.79396C61.2306 3.35203 61.2306 4.26051 60.6519 4.81857C47.5628 17.4409 69.7997 39.0701 55.1584 53.1886ZM59.8111 23.325C58.7171 18.3475 58.3243 14.4911 59.3522 11.2669L72.3151 23.7675C68.9717 24.7588 64.9726 24.3799 59.8111 23.325Z" fill="#5B5855"/>
</svg>
