<svg width="81" height="81" viewBox="0 0 81 81" fill="none" xmlns="http://www.w3.org/2000/svg">
<g clip-path="url(#clip0_402_612)">
<path d="M0 5.95587V46.4559H59.5589V5.95587H0ZM57.1765 44.0735H2.38238V8.33825H57.1765V44.0735Z" fill="#5B5855"/>
<path d="M80.2599 29.8681C75.7442 28.0206 70.7706 28.0206 66.2548 29.8681L65.5148 30.1708V37.522C65.5148 39.1641 66.8506 40.4999 68.4928 40.4999C68.8211 40.4999 69.0884 40.7671 69.0884 41.0955V44.669C69.0884 46.554 70.3461 48.1499 72.0663 48.6639V50.0294H74.4487V48.6639C76.1688 48.1499 77.4267 46.5541 77.4267 44.669V41.0955C77.4267 40.7671 77.694 40.4999 78.0223 40.4999C79.6645 40.4999 81.0002 39.164 81.0002 37.522V30.1709L80.2599 29.8681ZM78.6176 37.522C78.6176 37.8504 78.3503 38.1176 78.022 38.1176C76.3798 38.1176 75.044 39.4535 75.044 41.0957V44.6691C75.044 45.6543 74.2424 46.4559 73.2572 46.4559C72.2721 46.4559 71.4705 45.6543 71.4705 44.6691V41.0957C71.4705 39.4535 70.1346 38.1176 68.4926 38.1176C68.1644 38.1176 67.897 37.8504 67.897 37.522V31.7909C71.3814 30.5579 75.1332 30.5579 78.6176 31.7909V37.522Z" fill="#5B5855"/>
<path d="M76.5322 32.1617H70.2794V34.5441H76.5322V32.1617Z" fill="#5B5855"/>
<path d="M74.4485 52.4117H72.0662V54.7941H74.4485V52.4117Z" fill="#5B5855"/>
<path d="M74.4485 57.1765H72.0662V59.5589H74.4485V57.1765Z" fill="#5B5855"/>
<path d="M72.0661 61.9411V71.1727C72.0661 71.9937 71.3982 72.6618 70.5771 72.6618C69.756 72.6618 69.0881 71.9938 69.0881 71.1727V70.2079C69.0881 66.9631 66.4483 64.3235 63.2036 64.3235H59.5209L55.7092 50.0294H52.4118V48.8383H50.0294V50.0294H10.7206V48.8383H8.33825V50.0294H5.04067L0 68.9321V75.0441H60.75V68.9321L60.1563 66.7059H63.2036C65.1348 66.7059 66.7057 68.277 66.7057 70.2079V71.1727C66.7057 73.3074 68.4425 75.0441 70.5771 75.0441C72.7117 75.0441 74.4485 73.3074 74.4485 71.1727V61.9411H72.0661ZM58.3676 72.6618H2.38238V70.2794H53.603V67.897H2.74166L6.87108 52.4118H53.8792L58.0087 67.897H55.6878V70.2794H58.3678V72.6618H58.3676Z" fill="#5B5855"/>
<path d="M35.6203 10.2386L34.7813 11.0606C33.4375 12.3773 31.6611 13.1024 29.7794 13.1024C27.817 13.1024 26.1073 12.3294 24.6984 10.8048L23.8574 9.89496L6.91809 26.8346L7.24953 27.5819C11.2679 36.6414 20.1091 42.5301 29.7727 42.5842C29.8213 42.5843 29.8694 42.5845 29.9178 42.5845C38.2001 42.5845 43.8395 38.6077 47.1183 35.2603C50.6706 31.6333 52.2491 28.0192 52.3145 27.8671L52.6353 27.1222L35.6203 10.2386ZM45.3564 33.6542C41.0711 37.9994 35.8789 40.2021 29.9218 40.2021C29.8767 40.2021 29.8314 40.2019 29.7862 40.2018C21.322 40.1545 13.5506 35.1377 9.76939 27.3525L23.8408 13.2811C25.5351 14.7273 27.5661 15.4849 29.7795 15.4849C31.8925 15.4849 33.9058 14.7991 35.5592 13.5339L49.7747 27.6397C49.1597 28.8119 47.7255 31.2519 45.3564 33.6542Z" fill="#5B5855"/>
<path d="M7.14715 39.3089H4.76477V41.6913H7.14715V39.3089Z" fill="#5B5855"/>
<path d="M11.9117 39.3089H9.5293V41.6913H11.9117V39.3089Z" fill="#5B5855"/>
<path d="M50.0295 39.3089H47.6471V41.6913H50.0295V39.3089Z" fill="#5B5855"/>
<path d="M54.7941 39.3089H52.4117V41.6913H54.7941V39.3089Z" fill="#5B5855"/>
<path d="M11.9118 10.7206H4.76477V13.103H11.9118V10.7206Z" fill="#5B5855"/>
<path d="M16.6766 10.7206H14.2942V13.103H16.6766V10.7206Z" fill="#5B5855"/>
<path d="M9.52953 15.4852H4.76477V17.8676H9.52953V15.4852Z" fill="#5B5855"/>
<path d="M7.14715 20.25H4.76477V22.6324H7.14715V20.25Z" fill="#5B5855"/>
<path d="M54.7941 10.7206H47.6471V13.103H54.7941V10.7206Z" fill="#5B5855"/>
<path d="M45.2647 10.7206H42.8823V13.103H45.2647V10.7206Z" fill="#5B5855"/>
<path d="M54.7942 15.4852H50.0294V17.8676H54.7942V15.4852Z" fill="#5B5855"/>
<path d="M54.7941 20.25H52.4117V22.6324H54.7941V20.25Z" fill="#5B5855"/>
<path d="M13.103 59.7638V58.3678H10.7206V59.7638C9.3343 60.2554 8.33826 61.5795 8.33826 63.1324C8.33826 65.103 9.94149 66.7059 11.9117 66.7059C13.882 66.7059 15.4852 65.1028 15.4852 63.1324C15.4852 61.5795 14.4894 60.2554 13.103 59.7638ZM11.9117 64.3235C11.2549 64.3235 10.7206 63.7892 10.7206 63.1324C10.7206 62.4755 11.2549 61.9413 11.9117 61.9413C12.5686 61.9413 13.1029 62.4755 13.1029 63.1324C13.1029 63.7892 12.5686 64.3235 11.9117 64.3235Z" fill="#5B5855"/>
<path d="M31.5662 59.7638V58.3678H29.1838V59.7638C27.7974 60.2554 26.8014 61.5795 26.8014 63.1324C26.8014 65.103 28.4046 66.7059 30.3749 66.7059C32.3451 66.7059 33.9484 65.1028 33.9484 63.1324C33.9485 61.5795 32.9526 60.2554 31.5662 59.7638ZM30.375 64.3235C29.7182 64.3235 29.1839 63.7892 29.1839 63.1324C29.1839 62.4755 29.7182 61.9413 30.375 61.9413C31.0319 61.9413 31.5662 62.4755 31.5662 63.1324C31.5662 63.7892 31.0319 64.3235 30.375 64.3235Z" fill="#5B5855"/>
<path d="M51.2206 59.7638V58.3678H48.8382V59.7638C47.4519 60.2554 46.4558 61.5795 46.4558 63.1324C46.4558 65.103 48.059 66.7059 50.0293 66.7059C51.9996 66.7059 53.6028 65.1028 53.6028 63.1324C53.6029 61.5795 52.6069 60.2554 51.2206 59.7638ZM50.0293 64.3235C49.3724 64.3235 48.8382 63.7892 48.8382 63.1324C48.8382 62.4755 49.3724 61.9413 50.0293 61.9413C50.6862 61.9413 51.2204 62.4755 51.2204 63.1324C51.2204 63.7892 50.6863 64.3235 50.0293 64.3235Z" fill="#5B5855"/>
<path d="M12.5074 53.603H10.125V55.9854H12.5074V53.603Z" fill="#5B5855"/>
<path d="M17.2722 53.603H14.8898V55.9854H17.2722V53.603Z" fill="#5B5855"/>
<path d="M22.0367 53.603H19.6543V55.9854H22.0367V53.603Z" fill="#5B5855"/>
<path d="M26.8016 53.603H24.4192V55.9854H26.8016V53.603Z" fill="#5B5855"/>
<path d="M31.5662 53.603H29.1838V55.9854H31.5662V53.603Z" fill="#5B5855"/>
<path d="M36.3309 53.603H33.9485V55.9854H36.3309V53.603Z" fill="#5B5855"/>
<path d="M41.0956 53.603H38.7133V55.9854H41.0956V53.603Z" fill="#5B5855"/>
<path d="M45.8604 53.603H43.478V55.9854H45.8604V53.603Z" fill="#5B5855"/>
<path d="M50.625 53.603H48.2427V55.9854H50.625V53.603Z" fill="#5B5855"/>
</g>
<defs>
<clipPath id="clip0_402_612">
<rect width="81" height="81" rx="10" fill="white"/>
</clipPath>
</defs>
</svg>
