<svg width="123" height="123" viewBox="0 0 123 123" fill="none" xmlns="http://www.w3.org/2000/svg">
<path d="M52.07 68.5C54.9833 71.6081 58.1657 74.4525 61.58 77C65.2727 79.745 69.186 82.18 73.28 84.28L73.45 84.16C73.75 83.92 74.09 83.61 74.45 83.26C74.81 82.91 75.05 82.61 75.37 82.26L76.5 80.79C76.5996 80.6364 76.7134 80.4924 76.84 80.36C81.15 74.68 86.52 67.85 95.16 71.85C95.3392 71.9243 95.513 72.0112 95.68 72.11C102.68 76.25 109.86 80.26 116.92 84.32C117.096 84.4119 117.263 84.5189 117.42 84.64C119.169 85.8274 120.573 87.4557 121.49 89.36C122.397 91.3217 122.861 93.4589 122.85 95.62V95.62C122.829 97.6877 122.512 99.7418 121.91 101.72C121.276 103.832 120.404 105.865 119.31 107.78C117.961 110.167 116.204 112.299 114.12 114.08C112.153 115.758 109.953 117.142 107.59 118.19H107.54C105.393 119.159 103.164 119.935 100.88 120.51C98.662 121.076 96.4155 121.523 94.15 121.85C90.6847 122.369 87.1704 122.476 83.68 122.17C80.2291 121.863 76.8203 121.192 73.51 120.17C70.1149 119.094 66.8084 117.757 63.62 116.17C60.1398 114.453 56.7487 112.56 53.46 110.5L52.62 109.98C49.55 108.07 46.24 105.98 42.89 103.51C35.9809 98.2711 29.6156 92.3514 23.89 85.84C18.3369 79.5633 13.4756 72.7072 9.38997 65.39C5.75334 58.9406 3.05931 52.0035 1.38997 44.79C-0.110785 38.3758 -0.382243 31.7353 0.589971 25.22C1.18022 21.3594 2.40331 17.6225 4.20997 14.16C5.89664 10.9336 8.22415 8.0855 11.05 5.79003C13.8498 3.54545 17.0897 1.9136 20.56 1.00003C24.2284 0.0631436 28.0324 -0.224529 31.8 0.150027C32.8039 0.214544 33.7746 0.534683 34.62 1.08003C35.4501 1.61659 36.1367 2.34777 36.62 3.21003L50.08 26C51.2656 27.5294 52.0402 29.3367 52.33 31.25C52.5694 33.1533 52.2859 35.0858 51.51 36.84V36.84C50.869 38.2921 49.9903 39.6271 48.91 40.79C47.8414 41.9425 46.6624 42.9875 45.39 43.91C44.66 44.54 43.74 45.21 42.78 45.91L42.69 45.98C41.5506 46.7621 40.4709 47.6278 39.46 48.57C39.0651 48.8892 38.7558 49.3016 38.56 49.77C38.56 49.88 38.65 49.77 38.75 49.94L39.09 50.47C40.22 52.24 42.4 55.62 44.89 59.21C47.0812 62.4641 49.4794 65.5739 52.07 68.52V68.5ZM57.52 82.4C53.8001 79.6213 50.3272 76.5264 47.14 73.15C44.3084 69.9636 41.6958 66.5892 39.32 63.05C36.84 59.47 34.56 55.94 33.38 54.05L33.09 53.62C32.5885 53.0036 32.2144 52.2936 31.9895 51.5315C31.7646 50.7693 31.6934 49.97 31.78 49.18C32.0451 47.0701 33.0645 45.1272 34.65 43.71C35.9125 42.5129 37.2666 41.4163 38.7 40.43V40.43C39.5 39.85 40.26 39.29 40.95 38.7L41.16 38.54C42.1307 37.861 43.0258 37.0799 43.83 36.21C44.4065 35.5936 44.8793 34.8878 45.23 34.12C45.5185 33.4954 45.6326 32.8043 45.56 32.12C45.4107 31.3434 45.0666 30.6173 44.56 30.01C44.4365 29.8691 44.3291 29.7148 44.24 29.55L30.92 6.86003C28.0316 6.59736 25.1196 6.83073 22.31 7.55003C19.7531 8.21802 17.3672 9.42121 15.31 11.08C13.2016 12.8004 11.4634 14.9299 10.2 17.34C8.7503 20.1411 7.77059 23.1613 7.29997 26.28C6.45723 31.94 6.69476 37.7085 7.99997 43.28C9.54642 49.8649 12.0247 56.1954 15.36 62.08C19.1993 68.9511 23.7727 75.3854 29 81.27C34.4251 87.4349 40.4553 93.0397 47 98C50 100.27 53.26 102.28 56.26 104.14L57.11 104.68C60.1887 106.612 63.3627 108.387 66.62 110C69.4903 111.431 72.4697 112.631 75.53 113.59C78.3827 114.486 81.3226 115.076 84.3 115.35C87.2674 115.605 90.2544 115.511 93.2 115.07C95.22 114.786 97.223 114.392 99.2 113.89C101.097 113.416 102.947 112.773 104.73 111.97H104.82C106.598 111.182 108.255 110.145 109.74 108.89C111.224 107.619 112.476 106.1 113.44 104.4C114.278 102.936 114.949 101.383 115.44 99.77C115.853 98.4107 116.075 97.0005 116.1 95.58C116.125 94.4289 115.889 93.2869 115.41 92.24C115.006 91.3905 114.381 90.6652 113.6 90.14C108.19 86.27 98.69 81.55 92.6 78.03L92.31 77.88L92.43 77.94L92.31 77.88C88.56 76.21 85.08 80.63 82.25 84.36L82.08 84.6C81.59 85.25 81.08 85.88 80.68 86.42C80.28 86.96 79.68 87.62 79.28 88.02C78.7413 88.5578 78.1702 89.062 77.57 89.53C76.8927 90.0413 76.1493 90.4584 75.36 90.77C74.613 91.0639 73.8115 91.1936 73.01 91.15C72.32 91.1032 71.6434 90.9374 71.01 90.66L70.69 90.52C66.0784 88.1904 61.6726 85.474 57.52 82.4V82.4Z" fill="#5B5855"/>
</svg>
