<svg width="82" height="82" viewBox="0 0 82 82" fill="none" xmlns="http://www.w3.org/2000/svg">
<path d="M12.9555 56.1017L9.42672 48.2905C8.32858 45.9314 5.4223 44.8634 2.93536 45.9051C0.448409 46.9467 -0.677448 49.7037 0.420685 52.0628C6.9206 65.6272 7.23726 67.0966 10.1199 69.8284L21.6734 80.7881C21.9409 81.0419 22.3036 81.1845 22.6819 81.1846H38.145C38.9328 81.1846 39.5714 80.5788 39.5714 79.8315C39.7633 77.088 39.6047 74.3326 39.0993 71.6252C40.3621 71.7389 41.6334 71.7389 42.8962 71.6252C42.2815 74.1013 42.4241 75.6222 42.4241 79.8302C42.4241 80.5774 43.0627 81.1832 43.8505 81.1832H59.3193C59.6976 81.1831 60.0603 81.0405 60.3278 80.7868L71.8813 69.827C74.7597 67.0952 74.9893 65.8071 81.5805 52.0615C82.2909 50.5354 82.089 48.7657 81.051 47.4191C80.0129 46.0724 78.2964 45.3534 76.5479 45.5329C74.7995 45.7124 73.2849 46.763 72.5745 48.2891L69.04 56.1017C67.3842 55.015 65.3264 54.6312 63.3602 55.0422C64.0202 53.5067 64.5804 51.9342 65.0376 50.3336C67.8689 49.7924 74.7283 47.434 74.7283 37.209C74.7283 33.7438 74.0921 29.4736 70.4592 29.0027C75.5943 21.4635 77.6463 12.4034 76.2288 3.52878L75.6583 1.05946C75.5127 0.438033 74.9301 -0.00305612 74.259 1.5947e-05H7.73648C7.06808 0.00012476 6.4894 0.440514 6.34435 1.05946L5.74528 3.63026C4.35315 12.4794 6.41387 21.5063 11.5406 29.0162C7.9433 29.525 7.31998 33.7831 7.31998 37.2144C7.31998 47.4435 14.185 49.7978 17.0192 50.339C17.479 51.9441 18.0416 53.5211 18.7038 55.0612C16.7187 54.6239 14.6313 55.0017 12.9555 56.1017V56.1017ZM36.7187 78.4771H23.2667L12.1411 67.9152C9.81183 65.7111 9.81468 65.1265 3.01808 50.9425C2.71947 50.3008 2.80443 49.5567 3.24097 48.9905C3.6775 48.4243 4.3993 48.1221 5.13446 48.1976C5.86962 48.2731 6.50645 48.715 6.80507 49.3567C12.5832 62.1485 10.3367 59.0324 21.6677 69.7878C22.0259 70.1395 22.5562 70.2806 23.0549 70.1568C23.5536 70.0329 23.943 69.6635 24.0736 69.1904C24.2041 68.7174 24.0554 68.2143 23.6846 67.8746C15.871 60.4639 15.5016 60.2582 14.3106 58.5277C15.9078 57.2698 18.2221 57.2664 19.8234 58.5196C22.7943 61.1037 26.2264 63.1655 29.9592 64.6083C33.2954 65.6596 36.7187 69.7607 36.7187 75.5004V78.4771ZM38.0837 68.769C36.7587 65.6763 34.1452 63.2407 30.862 62.0389C28.0591 60.9633 25.458 59.4646 23.1597 57.6008C18.2587 49.3635 17.6283 39.4361 17.6211 29.9769C20.6436 24.9246 28.5713 13.2708 40.9977 6.16047C53.4513 13.3235 61.3947 24.995 64.4271 30.0608C64.4043 39.6675 63.7995 49.1389 58.9613 57.5102C56.6288 59.4125 53.9854 60.9421 51.1349 62.0389C47.849 63.2432 45.2339 65.6822 43.9089 68.7784C41.9781 69.0576 40.0135 69.0544 38.0837 68.769ZM67.6849 58.5209C66.4996 60.2447 66.1559 60.426 58.3109 67.8678C57.7703 68.3987 57.7781 69.2426 58.3283 69.7646C58.8785 70.2865 59.7681 70.2938 60.3278 69.781C71.5504 59.1366 69.4094 62.1552 75.1904 49.3567C75.489 48.715 76.1259 48.2731 76.861 48.1976C77.5962 48.1221 78.318 48.4243 78.7545 48.9905C79.1911 49.5567 79.276 50.3008 78.9774 50.9425C72.2821 64.9155 72.2407 65.6569 69.863 67.9152L58.7288 78.4771H45.2768V75.5004C45.2282 72.5631 46.2285 69.6966 48.1153 67.3672C51.4601 63.4 52.527 66.2212 62.172 58.5196C63.7717 57.2644 66.086 57.265 67.6849 58.5209V58.5209ZM71.8756 37.209C71.8756 44.0216 68.3938 46.4598 65.805 47.3339C66.7687 42.5163 67.2501 37.6231 67.2428 32.7196C68.5621 31.8306 69.7317 31.4599 70.3807 31.7575C70.7302 31.9172 71.8756 32.7859 71.8756 37.209V37.209ZM73.1179 2.70612C75.007 11.7497 72.8923 21.1322 67.2699 28.6523C67.1343 18.5463 64.3201 11.6227 58.6632 7.51758C58.0373 7.06361 57.142 7.17689 56.6634 7.7706C56.1849 8.36431 56.3043 9.21362 56.9302 9.66758C61.0538 12.6592 63.4173 17.5545 64.1547 24.4835C58.435 16.2434 49.6015 7.46616 40.3844 2.70612H73.1179ZM8.88042 2.70612H28.3345C25.1521 4.70573 22.3136 7.15876 19.919 9.97878C19.4267 10.5624 19.5263 11.4141 20.1415 11.8812C20.7568 12.3482 21.6546 12.2537 22.147 11.6701C25.3352 7.93554 29.3514 4.91294 33.9102 2.81707C35.3591 3.3573 36.7774 3.96881 38.1593 4.64911C26.1864 11.961 18.5397 22.8842 14.951 28.9554C9.15248 21.3935 6.95141 11.8761 8.88042 2.70612ZM10.1727 37.209C10.1727 32.7804 11.3138 31.9118 11.6704 31.7521C12.3065 31.4612 13.5004 31.8374 14.8084 32.7141C14.8012 37.62 15.2831 42.5155 16.2476 47.3352C13.6587 46.4666 10.1727 44.0297 10.1727 37.209V37.209Z" fill="#5B5855"/>
<path d="M24.519 29.4086C26.0064 28.6994 27.7308 28.5835 29.3088 29.0866L34.8416 30.836C35.3257 30.9887 35.859 30.8849 36.2405 30.5636C36.622 30.2422 36.7938 29.7523 36.6912 29.2782C36.5886 28.8042 36.2272 28.418 35.7431 28.2653L30.2102 26.5199C27.9151 25.7886 25.407 25.9576 23.2439 26.9894C22.7839 27.2032 22.4801 27.6346 22.4479 28.1195C22.4158 28.6044 22.6603 29.0685 23.0884 29.3352C23.5166 29.602 24.0626 29.6305 24.519 29.4099V29.4086Z" fill="#5B5855"/>
<path d="M46.7032 30.9052C47.0355 30.9052 46.7032 30.9796 52.6939 29.0866C54.2716 28.5821 55.9967 28.6981 57.4836 29.4086C57.94 29.6292 58.4861 29.6007 58.9142 29.3339C59.3424 29.0672 59.5868 28.6031 59.5547 28.1181C59.5226 27.6331 59.2188 27.2017 58.7588 26.9879C56.5951 25.9561 54.0867 25.7871 51.791 26.5184L46.2596 28.268C45.5965 28.4769 45.1906 29.1108 45.3007 29.7653C45.4108 30.4198 46.0045 30.9023 46.7032 30.9052V30.9052Z" fill="#5B5855"/>
<path d="M35.2139 36.0981C34.961 35.3919 34.1533 35.013 33.4081 35.2511C33.3582 35.266 28.4943 36.7705 24.7373 34.0969C24.1724 33.6975 23.3846 33.7492 22.883 34.2187C22.3822 34.7102 21.7354 35.0453 21.0288 35.1794C20.241 35.1794 19.6024 35.7851 19.6024 36.5324C19.6024 37.2797 20.241 37.8854 21.0288 37.8854C22.0939 37.8313 23.1172 37.4744 23.9656 36.8612C24.181 36.983 24.3936 37.0912 24.6132 37.1954C24.422 37.4707 24.1729 37.7056 23.8815 37.8854C23.0937 37.8854 22.4551 38.4912 22.4551 39.2385C22.4551 40.9014 25.0896 41.5387 27.4089 38.1303C29.707 38.5757 32.0862 38.4664 34.3281 37.8124C35.0705 37.5696 35.4664 36.8034 35.2139 36.0981V36.0981Z" fill="#5B5855"/>
<path d="M57.2583 34.0971C53.5198 36.7558 48.6887 35.2837 48.5888 35.2512C47.8432 35.0098 47.0325 35.3875 46.7781 36.0948C46.5236 36.8021 46.9218 37.5712 47.6674 37.8125C49.9092 38.4675 52.2887 38.5769 54.5867 38.1305C55.3113 39.198 56.5536 40.5917 58.1141 40.5917C58.9086 40.5955 59.5585 39.9922 59.5718 39.2386C59.5799 38.8824 59.4363 38.5381 59.1736 38.2835C58.9108 38.029 58.551 37.8855 58.1754 37.8856C57.8593 37.7135 57.5898 37.474 57.388 37.1861C57.602 37.0819 57.816 36.9763 58.0299 36.8546C58.8775 37.4702 59.9009 37.8294 60.9668 37.8856C61.7545 37.8856 62.3931 37.2798 62.3931 36.5325C62.3931 35.7853 61.7545 35.1795 60.9668 35.1795C60.2641 35.0451 59.621 34.7115 59.1225 34.2229C58.6206 33.7468 57.8261 33.6932 57.2583 34.0971V34.0971Z" fill="#5B5855"/>
<path d="M35.9271 47.1295C38.9958 49.0771 42.9997 49.0771 46.0685 47.1295C46.4924 46.8612 46.7333 46.3987 46.7004 45.9163C46.6674 45.4339 46.3657 45.0048 45.9088 44.7906C45.4518 44.5765 44.9092 44.6098 44.4852 44.8781C42.3743 46.2164 39.6212 46.2164 37.5103 44.8781C36.8549 44.4633 35.9692 44.6311 35.5319 45.2529C35.0947 45.8746 35.2716 46.7148 35.9271 47.1295V47.1295Z" fill="#5B5855"/>
<path d="M49.556 55.2046C49.5517 54.7513 49.3501 54.3198 48.9989 54.0124C48.6478 53.7049 48.1784 53.5488 47.7017 53.5809C46.5192 53.5809 43.019 51.416 40.9978 51.416C38.9495 51.416 35.4978 53.5809 34.301 53.5809C33.8233 53.5472 33.3522 53.7026 32.9995 54.0102C32.6469 54.3178 32.4442 54.7501 32.4396 55.2046C32.4396 57.1137 36.4691 59.5343 40.9978 59.5343C45.5265 59.5343 49.556 57.1124 49.556 55.2046ZM40.9978 54.1221C42.5329 54.5486 44.0246 55.1047 45.4552 55.7837C42.6648 57.1759 39.3308 57.1759 36.5404 55.7837C37.9703 55.1034 39.4622 54.5473 40.9978 54.1221Z" fill="#5B5855"/>
<path d="M42.4242 62.2403H39.5714C38.7837 62.2403 38.1451 62.8462 38.1451 63.5935C38.1451 64.3408 38.7837 64.9467 39.5714 64.9467H42.4242C43.2119 64.9467 43.8505 64.3408 43.8505 63.5935C43.8505 62.8462 43.2119 62.2403 42.4242 62.2403Z" fill="#5B5855"/>
<path d="M16.7497 16.2367C17.5374 16.2367 18.176 15.6309 18.176 14.8836C18.176 14.1363 17.5374 13.5305 16.7497 13.5305C15.9619 13.5305 15.3233 14.1363 15.3233 14.8836C15.3233 15.6309 15.9619 16.2367 16.7497 16.2367Z" fill="#5B5855"/>
</svg>
