<svg width="81" height="81" viewBox="0 0 81 81" fill="none" xmlns="http://www.w3.org/2000/svg">
<path d="M66.7356 30.6059C62.8024 24.2331 56.4838 20.317 53.0674 18.55C51.3024 17.6372 49.0502 18.4634 48.3078 20.3263L47.3713 22.6758C46.7226 24.3032 47.4017 26.1455 48.9509 26.961C49.6055 27.3056 50.2494 27.6775 50.88 28.0677L47.7808 30.6217C47.4176 30.9211 47.1264 31.2861 46.9155 31.7065L43.9202 37.6809H29.7635L28.9162 35.3333C31.2971 34.2878 32.4985 31.5591 31.6045 29.0817L28.9844 21.8211C28.2722 19.8472 26.3809 18.5211 24.2784 18.5211C23.8178 18.5211 23.3618 18.5856 22.9183 18.7112L22.3777 17.213C24.7586 16.1675 25.9599 13.4388 25.0659 10.9615L22.7382 4.51118C22.0259 2.53733 20.1347 1.21106 18.0322 1.21106C17.5213 1.21106 17.016 1.28951 16.5272 1.44367C16.18 0.975152 15.72 0.596514 15.1765 0.341473C14.3125 -0.0642804 13.3418 -0.109976 12.4432 0.212645C12.4432 0.212645 7.22246 2.08643 7.21901 2.08767C5.3885 2.74461 4.40632 4.8232 5.06557 6.65005L8.19871 15.3327C8.39233 15.8691 8.98521 16.1475 9.52315 15.9544C10.061 15.7615 10.3401 15.17 10.1467 14.6335C10.1467 14.6335 7.01628 5.95898 7.01338 5.951C6.73502 5.17954 7.14863 4.30693 7.91994 4.03014C7.91994 4.03014 13.1353 2.15814 13.1441 2.15497C13.9168 1.87764 14.793 2.29123 15.0701 3.05911L28.0621 39.0624C28.2099 39.4722 28.5995 39.7451 29.036 39.7451H56.3694C57.6665 39.7451 58.7219 40.7976 58.7219 42.0912V48.7878C58.7219 50.0815 57.6665 51.134 56.3694 51.134H50.1284C49.5568 51.134 49.0934 51.5962 49.0934 52.1663C49.0934 52.7363 49.5568 53.1985 50.1284 53.1985H54.6645L54.1146 54.2532C53.4782 55.4734 52.2261 56.2315 50.847 56.2315H41.7452H33.665C32.2858 56.2315 31.0338 55.4734 30.3975 54.2532L29.8475 53.1985H45.9962C46.5679 53.1985 47.0313 52.7363 47.0313 52.1663C47.0313 51.5962 46.5679 51.134 45.9962 51.134H28.1427C25.2569 51.134 22.6614 49.3144 21.6842 46.6064L11.6959 18.9278C11.5024 18.3913 10.9094 18.113 10.3715 18.306C9.83366 18.4991 9.55462 19.0904 9.7481 19.6269L19.7363 47.3059C20.9354 50.629 24.0068 52.923 27.5017 53.1749L28.5609 55.2061C29.236 56.5008 30.3555 57.461 31.679 57.9447L27.2595 62.9257H20.5742C18.2437 62.9257 16.0824 64.2776 15.0674 66.3698C14.1615 68.2369 15.5735 70.47 17.6453 70.47C17.6453 70.47 56.8046 70.47 56.8402 70.47C58.9176 70.47 60.3234 68.2355 59.4184 66.3698C58.4035 64.2776 56.2419 62.9257 53.9115 62.9257H38.1038L42.2114 58.2963H50.847C53.0013 58.2963 54.9568 57.1122 55.9509 55.2061L57.0229 53.1504C59.1526 52.8343 60.7918 50.9987 60.7918 48.7882V42.0917C60.7918 39.6596 58.8078 37.6811 56.3694 37.6811H51.4354L52.61 35.3384L56.2527 32.3365C57.1002 33.2163 57.9137 34.2036 58.6094 35.2907C59.5264 36.724 61.4196 37.2868 62.9662 36.5635C62.9662 36.5635 65.2639 35.4889 65.2651 35.4884C67.0863 34.6366 67.793 32.319 66.7356 30.6059ZM21.6741 15.2639L17.3754 3.35076C17.5911 3.30094 17.8108 3.27575 18.032 3.27575C19.2643 3.27575 20.3727 4.05312 20.7903 5.21037L23.1179 11.6607C23.6251 13.0664 22.982 14.611 21.6741 15.2639ZM28.2128 33.3841L23.6217 20.6608C23.8375 20.611 24.0572 20.5858 24.2784 20.5858C25.5107 20.5858 26.6191 21.3631 27.0366 22.5204L29.6566 29.7809C30.1638 31.1866 29.5207 32.731 28.2128 33.3841ZM53.9114 64.9904C55.4533 64.9904 56.8835 65.8848 57.5552 67.2695C57.8081 67.7917 57.4163 68.4057 56.8403 68.4057C56.8403 68.4057 17.7469 68.4057 17.6456 68.4057C17.0678 68.4057 16.6798 67.7864 16.9307 67.2691C17.6021 65.8848 19.0324 64.9904 20.5742 64.9904H53.9114ZM35.3396 62.9259H30.0236L34.1312 58.2965H39.4472L35.3396 62.9259ZM51.1227 33.8858C51.0115 33.9774 50.9208 34.0912 50.8562 34.2198L49.121 37.6811H46.2344L48.7668 32.63C48.8478 32.4684 48.9596 32.3283 49.0992 32.2132L52.6774 29.2645C53.3918 29.7763 54.0809 30.3247 54.7426 30.9026L51.1227 33.8858ZM65.1095 32.7743C65.0017 33.1334 64.7489 33.4496 64.3862 33.6191C64.3862 33.6191 62.0895 34.6931 62.0873 34.6942C61.4668 34.9844 60.7202 34.7522 60.3542 34.1803C59.394 32.6795 58.2394 31.3608 57.0672 30.2325C55.8745 29.0843 54.6013 28.0172 53.2099 27.1146C53.2085 27.1136 53.2069 27.1131 53.2055 27.1121C52.1534 26.396 51.0477 25.7306 49.9168 25.1354C49.3049 24.8132 49.0373 24.0837 49.2946 23.4384C49.2946 23.4384 50.2291 21.0938 50.2311 21.0888C50.5227 20.3573 51.4125 20.0197 52.1142 20.3825C55.3405 22.0513 61.3011 25.7389 64.9723 31.688C65.1809 32.0259 65.2154 32.4209 65.1095 32.7743Z" fill="#5B5855"/>
</svg>
