<svg width="70" height="70" viewBox="0 0 70 70" fill="none" xmlns="http://www.w3.org/2000/svg">
<g clip-path="url(#clip0_402_743)">
<path d="M52.8304 27.459L14.4784 65.8112C11.6461 68.6435 7.03691 68.6435 4.20355 65.8111C1.41886 63.0264 1.32931 58.4106 4.0079 55.7319L11.5411 48.2C11.7335 48.0078 11.8415 47.7456 11.8415 47.4737C11.8415 46.9072 11.3824 46.449 10.8161 46.449C10.5254 46.449 10.2628 46.5702 10.0762 46.7648L2.55786 54.2817C0.88005 55.9595 -0.0281726 58.2427 0.000538386 60.7102C0.029386 63.1885 1.00706 65.5151 2.75351 67.2615C4.57009 69.0773 6.95569 69.9852 9.34144 69.9852C11.7272 69.9852 14.1126 69.0771 15.9284 67.2614L54.2806 28.9093C54.6811 28.5087 54.6811 27.8596 54.2806 27.4591C53.8802 27.0588 53.2309 27.0588 52.8304 27.459Z" fill="#5B5855"/>
<path d="M41.7714 26.7933L36.4953 32.0695C36.0948 32.47 36.0948 33.1192 36.4953 33.5196C36.6954 33.7198 36.9579 33.8199 37.2203 33.8199C37.4827 33.8199 37.7452 33.7198 37.9453 33.5196L43.2214 28.2435C43.6219 27.8429 43.6219 27.1938 43.2214 26.7933C42.821 26.393 42.1717 26.393 41.7714 26.7933Z" fill="#5B5855"/>
<path d="M33.3686 35.196L32.0008 36.5639C31.6003 36.9644 31.6003 37.6136 32.0008 38.014C32.2009 38.2142 32.4634 38.3143 32.7258 38.3143C32.9882 38.3143 33.2507 38.2142 33.4508 38.014L34.8187 36.6462C35.2191 36.2456 35.2191 35.5964 34.8187 35.196C34.4184 34.7957 33.7691 34.7957 33.3686 35.196Z" fill="#5B5855"/>
<path d="M69.6997 14.971L55.0438 0.315127C54.8516 0.1229 54.5907 0.0148926 54.3188 0.0148926C54.0469 0.0148926 53.786 0.1229 53.5938 0.315127L47.3407 6.56823C46.9402 6.96882 46.9402 7.61796 47.3407 8.01841L48.081 8.75874L13.5017 43.3393C13.3 43.5266 13.1738 43.7942 13.1738 44.0912C13.1738 44.6577 13.6336 45.1166 14.1999 45.1166C14.4718 45.1166 14.7327 45.0086 14.9249 44.8163L49.5306 10.2093L51.4027 12.0814L49.0017 14.4825C48.6012 14.8831 48.6012 15.5322 49.0017 15.9326L50.8167 17.7477L45.916 22.6484L43.5146 20.2469C43.1141 19.8466 42.4649 19.8466 42.0645 20.2469L25.4546 36.8568C25.2622 37.0491 25.1542 37.3099 25.1542 37.5819C25.1542 37.854 25.2622 38.1146 25.4546 38.3071L27.8559 40.7084L13.8339 54.7308C13.2738 54.4154 12.6398 54.2466 11.9794 54.2466C10.9675 54.2466 10.0159 54.6407 9.30031 55.3563L5.88056 58.7761C5.16497 59.4917 4.77081 60.4431 4.77081 61.4553C4.77081 62.4673 5.16497 63.4188 5.88056 64.1345C6.59615 64.8502 7.54771 65.2442 8.5597 65.2442C9.57169 65.2442 10.5233 64.8501 11.2388 64.1345L14.6585 60.7147C15.374 59.9992 15.7682 59.0477 15.7682 58.0356C15.7682 57.3751 15.5993 56.741 15.2839 56.181L29.3061 42.1589L31.7077 44.5605C31.9078 44.7606 32.1703 44.8607 32.4327 44.8607C32.6951 44.8607 32.9576 44.7606 33.1577 44.5605L49.7677 27.9506C49.9601 27.7583 50.0681 27.4976 50.0681 27.2255C50.0681 26.9534 49.9601 26.6928 49.7677 26.5003L47.3661 24.0987L52.2668 19.198L54.0821 21.0134C54.2823 21.2135 54.5448 21.3136 54.8071 21.3136C55.0695 21.3136 55.332 21.2135 55.5322 21.0134L57.9334 18.6123L59.8052 20.4842L56.2126 24.0766C55.8122 24.4772 55.8122 25.1263 56.2126 25.5268C56.6131 25.9271 57.2623 25.9271 57.6627 25.5268L61.2556 21.9338L61.9961 22.6742C62.1883 22.8665 62.4492 22.9745 62.7211 22.9745C62.993 22.9745 63.2539 22.8665 63.4461 22.6742L69.6992 16.4211C70.1001 16.0207 70.1001 15.3716 69.6997 14.971ZM13.2084 59.2646L9.78866 62.6843C9.4604 63.0126 9.02386 63.1935 8.5597 63.1935C8.0954 63.1935 7.659 63.0127 7.33073 62.6843V62.6842C7.00247 62.356 6.82159 61.9195 6.82159 61.4553C6.82159 60.9911 7.00234 60.5545 7.33073 60.2264L10.7505 56.8065C11.0787 56.4782 11.5152 56.2974 11.9794 56.2974C12.4435 56.2974 12.8796 56.478 13.2077 56.806C13.208 56.8061 13.2081 56.8064 13.2083 56.8066C13.2085 56.8069 13.2088 56.807 13.209 56.8073C13.5368 57.1354 13.7174 57.5716 13.7174 58.0356C13.7176 58.4998 13.5368 58.9363 13.2084 59.2646ZM32.4328 42.3851L27.6298 37.5821L42.7896 22.4223L45.1845 24.8172C45.1867 24.8195 45.1886 24.8218 45.1908 24.8242C45.1929 24.8263 45.1954 24.8283 45.1977 24.8304L47.5928 27.2255L32.4328 42.3851ZM58.1293 15.9069L54.108 11.8856L58.911 7.08257L62.9323 11.1039L58.1293 15.9069ZM54.3188 2.49032L57.4609 5.63239L52.6578 10.4355L49.5157 7.29339L54.3188 2.49032ZM54.8073 18.8382L51.1767 15.2076L52.8528 13.5315L56.4835 17.162L54.8073 18.8382ZM62.7215 20.4992L59.5795 17.3571L64.3825 12.5541L67.5246 15.6961L62.7215 20.4992Z" fill="#5B5855"/>
</g>
<defs>
<clipPath id="clip0_402_743">
<rect width="70" height="70" fill="white"/>
</clipPath>
</defs>
</svg>
