<svg width="89" height="86" viewBox="0 0 89 86" fill="none" xmlns="http://www.w3.org/2000/svg">
<g clip-path="url(#clip0_402_713)">
<path d="M62.4937 5.45361C57.6029 5.45361 52.8257 6.78208 48.6745 9.29591C47.8784 9.7118 41.8429 13.0835 42.7796 19.2259C43.1217 21.4693 44.3502 23.0726 45.5383 24.6233C47.2149 26.8114 48.815 28.9031 48.3787 33.1345C48.355 33.1224 48.3329 33.1083 48.3091 33.0965C47.068 32.4849 45.6548 32.3774 44.3297 32.7933C43.1167 33.1741 42.112 33.9526 41.4657 35.0013C41.0241 34.5882 40.5195 34.2333 39.9603 33.9496C38.9862 33.4553 37.9225 33.2131 36.8522 33.2285C36.7718 32.3863 36.8171 31.8329 36.8688 31.2127C36.9339 30.4281 37.0077 29.5389 36.8117 28.1399C36.4307 25.4218 34.8198 23.0472 32.2755 21.4534C29.2069 19.5308 25.0825 18.9668 21.5122 19.9806C15.0193 21.8244 11.2657 28.4317 13.1446 34.7092C13.6991 36.5615 14.7179 38.2703 16.091 39.6503C16.8117 40.3748 17.2016 41.3312 17.1611 42.2742C17.0458 44.9538 17.429 47.6151 18.2998 50.1847C20.1649 55.6867 24.218 60.2358 29.7127 62.9934C33.1518 64.7193 36.8599 65.5957 40.5588 65.5956C42.7694 65.5956 44.977 65.2825 47.1208 64.6507C48.3081 64.3008 49.4712 63.8584 50.5779 63.3352C53.6057 61.9039 56.0057 59.4608 57.3357 56.4552C58.0771 54.78 58.4602 52.9893 58.4793 51.1917C59.301 51.3376 60.1696 51.2953 61.0141 51.0323C63.7234 50.1886 65.2274 47.3299 64.3674 44.6604L63.034 40.5214C62.1478 37.7714 59.9021 35.6763 57.027 34.9168C55.1914 34.4324 53.2909 34.5444 51.5809 35.1902C52.8412 28.5106 50.3634 25.274 48.3331 22.6241C47.3145 21.2946 46.4349 20.1464 46.2197 18.7358C45.6031 14.6928 50.1536 12.3392 50.3421 12.2438C50.3869 12.2214 50.4309 12.1972 50.4736 12.1712C54.0822 9.97401 58.2389 8.81267 62.4948 8.81267C75.1935 8.81267 85.5247 19.0716 85.5247 31.6812C85.5247 45.5187 74.2809 57.1464 64.8489 64.4641C56.0169 71.3161 47.0678 75.7805 44.4997 77.0022C42.0306 75.8276 33.6708 71.6601 25.192 65.2605C24.4353 64.6895 23.3431 64.8192 22.7519 65.5502C22.1609 66.2814 22.2953 67.3369 23.0518 67.908C33.4369 75.7464 43.3538 80.2059 43.771 80.3918C44.0022 80.4949 44.2507 80.5463 44.4993 80.5463C44.7479 80.5463 44.9966 80.4948 45.2277 80.3918C45.6721 80.1936 56.2349 75.4428 66.9679 67.1278C73.3118 62.2135 78.3765 57.0746 82.0213 51.8547C86.6521 45.2225 89.0002 38.4352 89.0002 31.6815C89.0004 17.2194 77.1094 5.45361 62.4937 5.45361ZM34.5626 39.068C35.3502 38.3991 36.2006 37.6758 36.6628 36.602C37.2392 36.5496 37.8196 36.6575 38.3442 36.9237C38.954 37.2333 39.4244 37.7239 39.6989 38.3237L38.9738 39.6984L33.9451 39.6021C34.1536 39.4152 34.3604 39.2395 34.5626 39.068ZM49.8393 41.2912L50.4184 40.1934C50.6494 39.8628 50.9228 39.5563 51.2364 39.2821C52.5629 38.1225 54.3844 37.7021 56.1095 38.1576C57.8348 38.6133 59.1821 39.8705 59.7139 41.5205L61.0473 45.6591C61.3433 46.5779 60.8497 47.554 59.947 47.8351C59.0898 48.1027 58.1621 47.6887 57.8143 46.8933L56.7981 43.7394C56.5126 42.8537 55.5382 42.359 54.6216 42.635C53.705 42.9108 53.1932 43.8522 53.4786 44.7381L54.5214 47.9747C56.0958 52.884 53.7945 58.0752 49.0496 60.3178C48.108 60.7627 47.1177 61.1397 46.1062 61.4376C36.0844 64.3907 24.8634 58.7582 21.6031 49.1393C20.8621 46.9531 20.5362 44.6904 20.634 42.4139C20.7138 40.5602 19.9714 38.7047 18.5969 37.3228C17.599 36.3193 16.8878 35.1261 16.4839 33.7759C15.1353 29.2702 17.8305 24.5274 22.4921 23.2036C23.3593 22.9574 24.2702 22.8371 25.1819 22.8371C27.0302 22.8371 28.8825 23.3314 30.3841 24.2721C31.5729 25.0168 33.0553 26.3705 33.3665 28.5906C33.5123 29.6308 33.4617 30.2392 33.4031 30.9438C33.3322 31.7984 33.2517 32.7669 33.4977 34.406C33.6392 35.3491 33.4475 35.5423 32.2672 36.5446C31.9426 36.8202 31.5748 37.1325 31.1941 37.4953C31.1938 37.4958 31.1816 37.5072 31.1811 37.5077L31.1599 37.5277C30.209 38.4253 29.9099 39.7745 30.3975 40.9649C30.8816 42.1464 32.0457 42.9261 33.3635 42.9513L39.3298 43.0655C40.3997 43.0878 41.3934 42.5083 41.8766 41.5921L44.3921 36.8232C44.6028 36.4236 44.9621 36.1272 45.4036 35.9886C45.8455 35.8502 46.3162 35.8858 46.7301 36.0899C47.1438 36.2935 47.4506 36.6407 47.594 37.0673C47.7374 37.4941 47.7002 37.9491 47.4894 38.3489L47.4007 38.5169C47.1109 38.9593 46.8653 39.4258 46.6664 39.9088L44.9741 43.1176C44.2136 44.5594 42.8485 45.6658 41.2289 46.1533C40.5877 46.3461 39.9252 46.4378 39.261 46.4245L31.7432 46.2784C30.779 46.2608 29.9897 46.9966 29.9704 47.924C29.9511 48.8515 30.7135 49.6185 31.6734 49.6371L39.1911 49.7833C40.2299 49.8029 41.2633 49.6613 42.2625 49.3608C44.014 48.8337 45.5746 47.8365 46.7598 46.5193L47.9848 50.3209C48.2702 51.2066 49.244 51.7013 50.1613 51.4253C51.0779 51.1495 51.5896 50.2079 51.3042 49.3222L49.7559 44.5171C49.4107 43.4446 49.455 42.311 49.8393 41.2912Z" fill="#5B5855"/>
<path d="M20.342 61.3429L20.2921 61.2998C19.5778 60.6799 18.4787 60.7371 17.8373 61.4272C17.1958 62.1174 17.2549 63.1795 17.9692 63.7993L18.0191 63.8425C18.3511 64.1305 18.7662 64.2725 19.1799 64.2725C19.6562 64.2725 20.1306 64.0843 20.4739 63.715C21.1153 63.0245 21.0562 61.9627 20.342 61.3429Z" fill="#5B5855"/>
<path d="M40.3799 9.32968C36.2162 6.79384 31.4189 5.45361 26.5065 5.45361C11.8908 5.45361 0 17.2194 0 31.6815C0 40.8147 4.25081 49.9118 12.6344 58.7202C12.9772 59.0804 13.445 59.2628 13.9143 59.2628C14.3348 59.2628 14.7567 59.1161 15.0906 58.8193C15.7972 58.1915 15.8433 57.1289 15.1933 56.4459C7.41849 48.2774 3.47658 39.9453 3.47658 31.6815C3.47658 19.0717 13.8079 8.813 26.5065 8.813C30.7618 8.813 34.9184 9.97451 38.5264 12.1717C39.3383 12.6664 40.4119 12.4312 40.9238 11.6463C41.4356 10.8616 41.192 9.82435 40.3799 9.32968Z" fill="#5B5855"/>
<path d="M62.4938 13.4379C61.5338 13.4379 60.7554 14.1899 60.7554 15.1176C60.7554 16.0453 61.5336 16.7973 62.4937 16.7973H62.5032C63.4633 16.7973 64.2368 16.0453 64.2368 15.1176C64.2368 14.1899 63.4539 13.4379 62.4938 13.4379Z" fill="#5B5855"/>
<path d="M77.5905 21.1905C75.4405 18.1708 72.4634 15.8913 68.9805 14.5979C68.0844 14.2651 67.0788 14.6973 66.7343 15.5632C66.39 16.4291 66.8372 17.4008 67.7333 17.7337C73.5559 19.8958 77.4681 25.5011 77.4681 31.6817C77.4681 32.6094 78.2463 33.3614 79.2064 33.3614C80.1664 33.3614 80.9447 32.6094 80.9447 31.6817C80.9447 27.9002 79.7849 24.2724 77.5905 21.1905Z" fill="#5B5855"/>
</g>
<defs>
<clipPath id="clip0_402_713">
<rect width="89" height="86" fill="white"/>
</clipPath>
</defs>
</svg>
