<svg width="93" height="123" viewBox="0 0 93 123" fill="none" xmlns="http://www.w3.org/2000/svg">
<path fill-rule="evenodd" clip-rule="evenodd" d="M46.2699 24.08C50.7695 24.08 55.1679 25.4142 58.9092 27.914C62.6504 30.4138 65.5663 33.9669 67.2882 38.1239C69.0101 42.2809 69.4606 46.8552 68.5828 51.2683C67.705 55.6813 65.5383 59.735 62.3566 62.9167C59.175 66.0983 55.1213 68.265 50.7082 69.1428C46.2952 70.0207 41.7209 69.5701 37.5639 67.8482C33.4069 66.1263 29.8538 63.2104 27.354 59.4692C24.8542 55.728 23.5199 51.3295 23.5199 46.83C23.5199 40.7963 25.9168 35.0097 30.1833 30.7433C34.4497 26.4768 40.2363 24.08 46.2699 24.08V24.08ZM47.6299 115.7C53.6658 111.799 59.1686 107.13 63.9999 101.81C74.2367 90.6697 81.3318 77.0109 84.5599 62.23C87.3699 48.56 86.0599 35.23 79.8099 24.89C77.9947 21.9015 75.7622 19.1875 73.1799 16.83C65.6199 9.92998 56.9999 6.63997 48.2299 6.55997C39.0699 6.48997 29.7699 9.99998 21.5499 16.5C18.1574 19.18 15.24 22.4118 12.9199 26.06C7.14994 35.15 5.40994 46.43 7.30994 58.24C9.24994 70.24 14.9699 82.85 24.0799 94.24C30.7629 102.578 38.709 109.818 47.6299 115.7V115.7ZM68.8699 106.24C63.2116 112.456 56.7041 117.843 49.5399 122.24C49.0071 122.634 48.3674 122.857 47.7051 122.88C47.0428 122.904 46.3891 122.726 45.8299 122.37C35.5961 115.915 26.5057 107.804 18.9299 98.37C9.12994 86.06 2.92994 72.37 0.829943 59.27C-1.33006 45.89 0.699943 33 7.35994 22.53C10.0789 18.2656 13.4928 14.4867 17.4599 11.35C26.8499 3.86998 37.5999 -0.0900252 48.2899 -2.51511e-05C58.5999 0.0899749 68.7899 3.91998 77.5999 12C80.649 14.7825 83.2826 17.9885 85.4199 21.52C92.5699 33.32 94.1299 48.35 90.9899 63.57C87.5237 79.5094 79.8907 94.244 68.8699 106.27V106.24Z" fill="#5B5855"/>
</svg>
